<svg width="571" height="383" viewBox="0 0 571 383" fill="none" xmlns="http://www.w3.org/2000/svg">
<ellipse cx="284.231" cy="20.8556" rx="18.967" ry="18.5718" transform="rotate(89.6191 284.231 20.8556)" fill="#FEE7E1"/>
<ellipse cx="284.482" cy="58.7892" rx="18.967" ry="18.5718" transform="rotate(89.6191 284.482 58.7892)" fill="#FEE7E1"/>
<circle cx="398.397" cy="134.691" r="18.967" transform="rotate(89.6191 398.397 134.691)" fill="#155FCF"/>
<circle cx="398.14" cy="95.9681" r="18.967" transform="rotate(89.6191 398.14 95.9681)" fill="#FEE7E1"/>
<circle cx="436.072" cy="95.7162" r="18.967" transform="rotate(89.6191 436.072 95.7162)" fill="#FEE7E1"/>
<circle cx="435.82" cy="57.7836" r="18.967" transform="rotate(89.6191 435.82 57.7836)" fill="#FEE7E1"/>
<circle cx="397.888" cy="58.035" r="18.967" transform="rotate(89.6191 397.888 58.035)" fill="#FEE7E1"/>
<circle cx="435.571" cy="19.85" r="18.967" transform="rotate(89.6191 435.571 19.85)" fill="#FEE7E1"/>
<ellipse cx="284.734" cy="96.7223" rx="18.967" ry="18.5718" transform="rotate(89.6191 284.734 96.7223)" fill="#FEE7E1"/>
<ellipse cx="284.976" cy="133.075" rx="18.967" ry="18.5718" transform="rotate(89.6191 284.976 133.075)" fill="#FEE7E1"/>
<circle cx="360.459" cy="134.154" r="18.967" transform="rotate(89.6191 360.459 134.154)" fill="#FEE7E1"/>
<ellipse cx="360.708" cy="171.691" rx="18.5718" ry="18.967" transform="rotate(89.6191 360.708 171.691)" fill="#FEE7E1"/>
<circle cx="360.957" cy="209.23" r="18.967" transform="rotate(89.6191 360.957 209.23)" fill="#FEE7E1"/>
<circle cx="323.024" cy="209.481" r="18.967" transform="rotate(89.6191 323.024 209.481)" fill="#FEE7E1"/>
<circle cx="323.276" cy="247.415" r="18.967" transform="rotate(89.6191 323.276 247.415)" fill="#FEE7E1"/>
<ellipse cx="285.739" cy="247.665" rx="18.967" ry="18.5718" transform="rotate(89.6191 285.739 247.665)" fill="#FEE7E1"/>
<ellipse cx="285.991" cy="285.598" rx="18.967" ry="18.5718" transform="rotate(89.6191 285.991 285.598)" fill="#FEE7E1"/>
<circle cx="323.53" cy="285.348" r="18.967" transform="rotate(89.6191 323.53 285.348)" fill="#FEE7E1"/>
<circle cx="361.462" cy="285.096" r="18.967" transform="rotate(89.6191 361.462 285.096)" fill="#FEE7E1"/>
<circle cx="399.396" cy="284.843" r="18.967" transform="rotate(89.6191 399.396 284.843)" fill="#FEE7E1"/>
<circle cx="437.329" cy="284.591" r="18.967" transform="rotate(89.6191 437.329 284.591)" fill="#FEE7E1"/>
<circle cx="437.58" cy="322.525" r="18.967" transform="rotate(89.6191 437.58 322.525)" fill="#155FCF"/>
<circle cx="475.764" cy="360.205" r="18.967" transform="rotate(89.6191 475.764 360.205)" fill="#FEE7E1"/>
<circle cx="475.524" cy="323.853" r="18.967" transform="rotate(89.6191 475.524 323.853)" fill="#FEE7E1"/>
<circle cx="475.261" cy="284.339" r="18.967" transform="rotate(89.6191 475.261 284.339)" fill="#FEE7E1"/>
<circle cx="475.009" cy="246.406" r="18.967" transform="rotate(89.6191 475.009 246.406)" fill="#FEE7E1"/>
<circle cx="474.757" cy="208.473" r="18.967" transform="rotate(89.6191 474.757 208.473)" fill="#FEE7E1"/>
<circle cx="512.69" cy="208.221" r="18.967" transform="rotate(89.6191 512.69 208.221)" fill="#FEE7E1"/>
<circle cx="550.622" cy="207.968" r="18.967" transform="rotate(89.6191 550.622 207.968)" fill="#FEE7E1"/>
<circle cx="550.382" cy="171.616" r="18.967" transform="rotate(89.6191 550.382 171.616)" fill="#FEE7E1"/>
<circle cx="550.129" cy="133.683" r="18.967" transform="rotate(89.6191 550.129 133.683)" fill="#FEE7E1"/>
<circle cx="322.767" cy="170.758" r="18.967" transform="rotate(89.6191 322.767 170.758)" fill="#FEE7E1"/>
<ellipse cx="285.229" cy="171.008" rx="18.967" ry="18.5718" transform="rotate(89.6191 285.229 171.008)" fill="#FEE7E1"/>
<circle cx="246.694" cy="21.1053" r="18.967" transform="rotate(89.6191 246.694 21.1053)" fill="#FEE7E1"/>
<circle cx="208.76" cy="21.3578" r="18.967" transform="rotate(89.6191 208.76 21.3578)" fill="#FEE7E1"/>
<circle cx="209.011" cy="59.2914" r="18.967" transform="rotate(89.6191 209.011 59.2914)" fill="#FEE7E1"/>
<circle cx="171.079" cy="59.5424" r="18.967" transform="rotate(89.6191 171.079 59.5424)" fill="#FEE7E1"/>
<circle cx="133.147" cy="59.7953" r="18.967" transform="rotate(89.6191 133.147 59.7953)" fill="#FEE7E1"/>
<circle cx="132.895" cy="21.8617" r="18.967" transform="rotate(89.6191 132.895 21.8617)" fill="#155FCF"/>
<circle cx="94.9608" cy="22.1141" r="18.967" transform="rotate(89.6191 94.9608 22.1141)" fill="#FEE7E1"/>
<circle cx="57.0265" cy="22.3656" r="18.967" transform="rotate(89.6191 57.0265 22.3656)" fill="#FEE7E1"/>
<circle cx="19.0943" cy="22.6185" r="18.967" transform="rotate(89.6191 19.0943 22.6185)" fill="#FEE7E1"/>
<circle cx="19.3459" cy="60.5521" r="18.967" transform="rotate(89.6191 19.3459 60.5521)" fill="#FEE7E1"/>
<circle cx="133.4" cy="97.7279" r="18.967" transform="rotate(89.6191 133.4 97.7279)" fill="#FEE7E1"/>
<circle cx="95.4642" cy="97.9803" r="18.967" transform="rotate(89.6191 95.4642 97.9803)" fill="#FEE7E1"/>
<circle cx="95.7177" cy="135.913" r="18.967" transform="rotate(89.6191 95.7177 135.913)" fill="#FEE7E1"/>
<circle cx="57.7839" cy="136.166" r="18.967" transform="rotate(89.6191 57.7839 136.166)" fill="#155FCF"/>
<ellipse cx="58.0325" cy="173.703" rx="18.5718" ry="18.967" transform="rotate(89.6191 58.0325 173.703)" fill="#FEE7E1"/>
<circle cx="58.2849" cy="211.242" r="18.967" transform="rotate(89.6191 58.2849 211.242)" fill="#FEE7E1"/>
<circle cx="58.2849" cy="211.242" r="18.967" transform="rotate(89.6191 58.2849 211.242)" fill="#FEE7E1"/>
<circle cx="58.5366" cy="249.175" r="18.967" transform="rotate(89.6191 58.5366 249.175)" fill="#FEE7E1"/>
<circle cx="20.6004" cy="249.427" r="18.967" transform="rotate(89.6191 20.6004 249.427)" fill="#FEE7E1"/>
<circle cx="20.8542" cy="287.36" r="18.967" transform="rotate(89.6191 20.8542 287.36)" fill="#FEE7E1"/>
<circle cx="21.3592" cy="363.226" r="18.967" transform="rotate(89.6191 21.3592 363.226)" fill="#FEE7E1"/>
<circle cx="21.1057" cy="325.293" r="18.967" transform="rotate(89.6191 21.1057 325.293)" fill="#FEE7E1"/>
<circle cx="95.9576" cy="172.266" r="18.967" transform="rotate(89.6191 95.9576 172.266)" fill="#FEE7E1"/>
<circle cx="133.892" cy="172.014" r="18.967" transform="rotate(89.6191 133.892 172.014)" fill="#FEE7E1"/>
<circle cx="134.15" cy="210.738" r="18.967" transform="rotate(89.6191 134.15 210.738)" fill="#FEE7E1"/>
<circle cx="172.082" cy="210.485" r="18.967" transform="rotate(89.6191 172.082 210.485)" fill="#FEE7E1"/>
<ellipse cx="171.836" cy="172.948" rx="18.5718" ry="18.967" transform="rotate(89.6191 171.836 172.948)" fill="#FEE7E1"/>
<circle cx="172.333" cy="248.418" r="18.967" transform="rotate(89.6191 172.333 248.418)" fill="#155FCF"/>
<circle cx="172.585" cy="286.351" r="18.967" transform="rotate(89.6191 172.585 286.351)" fill="#FEE7E1"/>
<circle cx="172.839" cy="324.284" r="18.967" transform="rotate(89.6191 172.839 324.284)" fill="#FEE7E1"/>
<circle cx="173.091" cy="362.217" r="18.967" transform="rotate(89.6191 173.091 362.217)" fill="#FEE7E1"/>
<circle cx="211.025" cy="361.966" r="18.967" transform="rotate(89.6191 211.025 361.966)" fill="#FEE7E1"/>
<circle cx="248.957" cy="361.713" r="18.967" transform="rotate(89.6191 248.957 361.713)" fill="#FEE7E1"/>
<circle cx="96.2173" cy="210.99" r="18.967" transform="rotate(89.6191 96.2173 210.99)" fill="#FEE7E1"/>
<circle cx="209.263" cy="97.2235" r="18.967" transform="rotate(89.6191 209.263 97.2235)" fill="#FEE7E1"/>
</svg>
