<svg width="945" height="516" viewBox="0 0 945 516" fill="none" xmlns="http://www.w3.org/2000/svg">
<rect x="0.244751" y="343.414" width="86.7914" height="86.7914" fill="#155FCF"/>
<rect x="171.785" y="343.414" width="86.7914" height="86.7914" fill="#155FCF"/>
<rect x="514.867" y="429.185" width="86.7914" height="86.7914" fill="#155FCF"/>
<rect x="514.867" y="257.645" width="86.7914" height="86.7914" fill="#155FCF"/>
<rect x="686.407" y="86.1035" width="86.7914" height="86.7914" fill="#155FCF"/>
<rect x="514.867" y="0.333008" width="86.7914" height="86.7914" fill="#155FCF"/>
<rect x="686.407" y="343.414" width="86.7914" height="86.7914" fill="#155FCF"/>
<path d="M857.948 429.185H944.74L906.96 515.976H857.948V429.185Z" fill="#155FCF"/>
<rect x="0.244751" y="429.185" width="86.7914" height="86.7914" fill="#312D2D"/>
<rect x="86.0151" y="343.414" width="86.7914" height="86.7914" fill="#312D2D"/>
<rect x="429.096" y="429.185" width="86.7914" height="86.7914" fill="#312D2D"/>
<rect x="600.637" y="343.414" width="86.7914" height="86.7914" fill="#312D2D"/>
<rect x="772.177" y="257.645" width="86.7914" height="86.7914" fill="#312D2D"/>
<rect x="687.428" y="429.185" width="86.7914" height="86.7914" fill="#312D2D"/>
<rect x="257.556" y="343.414" width="86.7914" height="86.7914" fill="#FFE7E2"/>
<rect x="86.0151" y="429.185" width="86.7914" height="86.7914" fill="#FFE7E2"/>
<rect x="429.096" y="343.414" width="86.7914" height="86.7914" fill="#FFE7E2"/>
<rect x="600.637" y="257.645" width="86.7914" height="86.7914" fill="#FFE7E2"/>
<rect x="514.867" y="86.1035" width="86.7914" height="86.7914" fill="#FFE7E2"/>
<rect x="600.637" y="0.333008" width="86.7914" height="86.7914" fill="#FFE7E2"/>
<rect x="772.177" y="171.873" width="86.7914" height="86.7914" fill="#FFE7E2"/>
<rect x="772.177" y="429.185" width="86.7914" height="86.7914" fill="#FFE7E2"/>
<rect x="857.948" y="343.414" width="86.7914" height="86.7914" fill="#FFE7E2"/>
<rect x="257.556" y="429.185" width="86.7914" height="86.7914" fill="#FFE7E2"/>
<rect x="343.326" y="429.185" width="86.7914" height="86.7914" fill="#155FCF"/>
<path d="M171.785 429.185H258.577V515.976H171.785V429.185Z" fill="#D11917"/>
<rect x="600.637" y="429.185" width="86.7914" height="86.7914" fill="#D11917"/>
<rect x="686.407" y="257.645" width="86.7914" height="86.7914" fill="#D11917"/>
<rect x="600.637" y="170.853" width="86.7914" height="86.7914" fill="#312D2D"/>
<rect x="772.177" y="86.1035" width="86.7914" height="86.7914" fill="#312D2D"/>
<rect x="686.407" y="0.333008" width="86.7914" height="86.7914" fill="#312D2D"/>
<rect x="772.177" y="1.354" width="86.7914" height="86.7914" fill="#312D2D"/>
<rect x="514.867" y="171.873" width="86.7914" height="86.7914" fill="#312D2D"/>
<rect x="686.407" y="171.873" width="86.7914" height="86.7914" fill="#D11917"/>
<rect x="600.637" y="86.1035" width="86.7914" height="86.7914" fill="#D11917"/>
<rect x="772.177" y="343.414" width="86.7914" height="86.7914" fill="#D11917"/>
<rect x="514.867" y="343.414" width="86.7914" height="86.7914" fill="#D11917"/>
<rect x="343.326" y="343.414" width="86.7914" height="86.7914" fill="#D11917"/>
</svg>
