<svg width="622" height="641" viewBox="0 0 622 641" fill="none" xmlns="http://www.w3.org/2000/svg">
<circle cx="198.599" cy="457.506" r="20.932" fill="white"/>
<circle cx="260.885" cy="457.506" r="20.932" fill="#D11917"/>
<circle cx="323.17" cy="457.506" r="20.932" fill="white"/>
<circle cx="385.456" cy="457.506" r="20.932" fill="#155FCF"/>
<circle cx="447.742" cy="457.506" r="20.932" fill="#312D2D"/>
<rect x="81.6859" y="179.263" width="467.652" height="228.721" fill="#312D2D"/>
<rect x="133.761" y="212.958" width="80.6649" height="156.225" fill="#FEE7E1"/>
<rect x="276.711" y="212.958" width="80.6649" height="156.225" fill="#FEE7E1"/>
<rect x="419.662" y="212.958" width="80.6649" height="156.225" fill="#FEE7E1"/>
<rect x="133.761" y="212.958" width="80.6649" height="77.6017" fill="#155FCF"/>
<rect x="276.711" y="291.581" width="80.6649" height="77.6017" fill="#D11917"/>
<rect x="419.662" y="293.624" width="80.6649" height="77.6017" fill="#D11917"/>
<path d="M93.6285 401.137L94.6985 393.01L98.1358 394.939L97.467 400.018L93.6285 401.137Z" fill="#D11917"/>
<path d="M41.7253 386.035L40.6553 394.163L37.218 392.233L37.8868 387.154L41.7253 386.035Z" fill="#D11917"/>
<path d="M75.1278 367.843L67.0003 366.773L68.9294 363.336L74.009 364.005L75.1278 367.843Z" fill="#D11917"/>
<path d="M60.0255 419.746L68.1529 420.816L66.2239 424.253L61.1442 423.585L60.0255 419.746Z" fill="#D11917"/>
<path d="M94.2696 386.603L91.1325 379.029L95.0738 378.981L97.0345 383.715L94.2696 386.603Z" fill="#D11917"/>
<path d="M86.6182 413.281L91.6086 406.777L93.6209 410.166L90.5019 414.231L86.6182 413.281Z" fill="#D11917"/>
<path d="M41.0145 400.411L44.1515 407.985L40.2103 408.033L38.2496 403.299L41.0145 400.411Z" fill="#D11917"/>
<path d="M48.488 412.618L54.9916 417.608L51.6024 419.62L47.5376 416.501L48.488 412.618Z" fill="#D11917"/>
<path d="M48.9891 373.481L43.9987 379.985L41.9865 376.596L45.1055 372.531L48.9891 373.481Z" fill="#D11917"/>
<path d="M61.6846 366.759L54.111 369.896L54.063 365.955L58.7965 363.994L61.6846 366.759Z" fill="#D11917"/>
<path d="M87.125 374.813L80.6214 369.823L84.0106 367.811L88.0753 370.93L87.125 374.813Z" fill="#D11917"/>
<path d="M73.3474 420.615L80.9211 417.478L80.9691 421.42L76.2356 423.38L73.3474 420.615Z" fill="#D11917"/>
<path fill-rule="evenodd" clip-rule="evenodd" d="M40.3004 390.127C38.3058 405.276 48.9699 419.174 64.1192 421.169C79.2685 423.163 93.1663 412.499 95.1609 397.35C97.1554 382.201 86.4913 368.303 71.342 366.308C56.1927 364.314 42.2949 374.978 40.3004 390.127ZM50.8273 391.414C49.5901 400.811 56.2047 409.431 65.6014 410.668C74.9982 411.906 83.6186 405.291 84.8558 395.894C86.0929 386.498 79.4783 377.877 70.0816 376.64C60.6849 375.403 52.0644 382.017 50.8273 391.414Z" fill="#D11917"/>
<path d="M114.791 467.93L113.521 456.613L118.8 458.067L119.593 465.14L114.791 467.93Z" fill="#D11917"/>
<path d="M39.7598 464.887L41.0293 476.204L35.7504 474.75L34.957 467.677L39.7598 464.887Z" fill="#D11917"/>
<path d="M78.7313 429.208L67.4144 430.477L68.8686 425.198L75.9416 424.405L78.7313 429.208Z" fill="#D11917"/>
<path d="M75.6881 504.241L87.005 502.971L85.5508 508.25L78.4777 509.044L75.6881 504.241Z" fill="#D11917"/>
<path d="M110.804 448.117L104.047 438.951L109.345 437.571L113.569 443.299L110.804 448.117Z" fill="#D11917"/>
<path d="M109.39 486.646L113.949 476.21L117.794 480.109L114.945 486.631L109.39 486.646Z" fill="#D11917"/>
<path d="M43.5991 484.512L50.357 493.678L45.0583 495.058L40.8346 489.329L43.5991 484.512Z" fill="#D11917"/>
<path d="M57.7506 498.476L68.186 503.035L64.2873 506.879L57.7651 504.03L57.7506 498.476Z" fill="#D11917"/>
<path d="M45.3653 445.536L40.8062 455.972L36.9617 452.073L39.8111 445.551L45.3653 445.536Z" fill="#D11917"/>
<path d="M60.2419 432.232L51.0759 438.99L49.6958 433.691L55.4245 429.468L60.2419 432.232Z" fill="#D11917"/>
<path d="M97.2357 434.603L86.8002 430.044L90.699 426.2L97.2212 429.049L97.2357 434.603Z" fill="#D11917"/>
<path d="M93.9426 500.965L103.109 494.207L104.489 499.506L98.76 503.73L93.9426 500.965Z" fill="#D11917"/>
<path fill-rule="evenodd" clip-rule="evenodd" d="M39.2037 470.882C41.5699 491.976 60.5884 507.158 81.6827 504.792C102.777 502.425 117.959 483.407 115.593 462.313C113.227 441.218 94.208 426.036 73.1138 428.403C52.0195 430.769 36.8374 449.787 39.2037 470.882ZM53.829 469.103C55.2967 482.187 67.0934 491.604 80.1776 490.137C93.2618 488.669 102.679 476.872 101.211 463.788C99.7434 450.704 87.9467 441.287 74.8625 442.755C61.7783 444.222 52.3613 456.019 53.829 469.103Z" fill="#D11917"/>
<path d="M588.875 180.186L587.523 168.136L593.144 169.684L593.989 177.215L588.875 180.186Z" fill="#D11917"/>
<path d="M508.982 176.946L510.334 188.996L504.713 187.448L503.868 179.916L508.982 176.946Z" fill="#D11917"/>
<path d="M550.479 138.955L538.428 140.307L539.977 134.686L547.508 133.841L550.479 138.955Z" fill="#D11917"/>
<path d="M547.238 218.85L559.289 217.498L557.74 223.119L550.209 223.964L547.238 218.85Z" fill="#D11917"/>
<path d="M584.631 159.089L577.435 149.329L583.077 147.86L587.574 153.96L584.631 159.089Z" fill="#D11917"/>
<path d="M583.125 200.114L587.979 189.003L592.073 193.154L589.039 200.099L583.125 200.114Z" fill="#D11917"/>
<path d="M513.07 197.842L520.266 207.602L514.624 209.072L510.126 202.972L513.07 197.842Z" fill="#D11917"/>
<path d="M528.138 212.711L539.25 217.566L535.098 221.659L528.153 218.625L528.138 212.711Z" fill="#D11917"/>
<path d="M514.951 156.342L510.097 167.453L506.003 163.302L509.037 156.357L514.951 156.342Z" fill="#D11917"/>
<path d="M530.791 142.175L521.031 149.371L519.562 143.728L525.662 139.231L530.791 142.175Z" fill="#D11917"/>
<path d="M570.183 144.7L559.071 139.845L563.222 135.752L570.167 138.786L570.183 144.7Z" fill="#D11917"/>
<path d="M566.676 215.362L576.436 208.166L577.906 213.808L571.806 218.306L566.676 215.362Z" fill="#D11917"/>
<path fill-rule="evenodd" clip-rule="evenodd" d="M508.39 183.329C510.91 205.791 531.161 221.957 553.622 219.437C576.084 216.917 592.249 196.666 589.73 174.205C587.21 151.744 566.959 135.578 544.498 138.098C522.037 140.617 505.871 160.868 508.39 183.329ZM523.963 181.435C525.526 195.367 538.087 205.394 552.019 203.832C565.951 202.269 575.979 189.708 574.416 175.775C572.853 161.843 560.292 151.816 546.36 153.379C532.428 154.942 522.4 167.503 523.963 181.435Z" fill="#D11917"/>
<path d="M149.409 420.924L150.832 412.851L154.182 414.928L153.293 419.973L149.409 420.924Z" fill="#D11917"/>
<path d="M98.2126 403.577L96.7897 411.65L93.4397 409.573L94.329 404.527L98.2126 403.577Z" fill="#D11917"/>
<path d="M132.375 386.856L124.302 385.433L126.379 382.083L131.425 382.973L132.375 386.856Z" fill="#D11917"/>
<path d="M115.028 438.053L123.101 439.475L121.024 442.826L115.978 441.936L115.028 438.053Z" fill="#D11917"/>
<path d="M150.682 406.432L147.878 398.728L151.818 398.852L153.57 403.666L150.682 406.432Z" fill="#D11917"/>
<path d="M141.877 432.751L147.146 426.471L149.008 429.945L145.715 433.87L141.877 432.751Z" fill="#D11917"/>
<path d="M96.8765 417.908L99.6809 425.611L95.7412 425.487L93.9885 420.673L96.8765 417.908Z" fill="#D11917"/>
<path d="M103.811 430.428L110.091 435.697L106.618 437.56L102.693 434.267L103.811 430.428Z" fill="#D11917"/>
<path d="M106.016 391.351L100.747 397.631L98.8843 394.158L102.177 390.233L106.016 391.351Z" fill="#D11917"/>
<path d="M118.992 385.188L111.289 387.992L111.413 384.053L116.227 382.3L118.992 385.188Z" fill="#D11917"/>
<path d="M144.058 394.342L137.778 389.073L141.251 387.211L145.176 390.504L144.058 394.342Z" fill="#D11917"/>
<path d="M128.299 439.501L136.002 436.697L135.878 440.636L131.064 442.389L128.299 439.501Z" fill="#D11917"/>
<path fill-rule="evenodd" clip-rule="evenodd" d="M96.6106 407.603C93.9583 422.651 104.007 437 119.055 439.652C134.103 442.304 148.452 432.255 151.105 417.207C153.757 402.159 143.708 387.81 128.66 385.158C113.612 382.506 99.2628 392.555 96.6106 407.603ZM107.071 409.346C105.426 418.68 111.659 427.581 120.993 429.226C130.327 430.871 139.227 424.638 140.872 415.304C142.518 405.97 136.285 397.07 126.951 395.425C117.617 393.78 108.716 400.013 107.071 409.346Z" fill="#D11917"/>
<path d="M138.904 456.803L139.43 453.817L140.669 454.585L140.34 456.451L138.904 456.803Z" fill="#D11917"/>
<path d="M119.963 450.387L119.436 453.373L118.198 452.605L118.526 450.739L119.963 450.387Z" fill="#D11917"/>
<path d="M132.601 444.2L129.615 443.674L130.384 442.435L132.25 442.764L132.601 444.2Z" fill="#D11917"/>
<path d="M126.184 463.141L129.17 463.667L128.402 464.906L126.536 464.577L126.184 463.141Z" fill="#D11917"/>
<path d="M139.373 451.442L138.336 448.593L139.793 448.639L140.442 450.419L139.373 451.442Z" fill="#D11917"/>
<path d="M136.117 461.178L138.065 458.856L138.754 460.141L137.536 461.592L136.117 461.178Z" fill="#D11917"/>
<path d="M119.469 455.689L120.506 458.538L119.049 458.492L118.401 456.712L119.469 455.689Z" fill="#D11917"/>
<path d="M122.036 460.321L124.358 462.27L123.074 462.959L121.622 461.741L122.036 460.321Z" fill="#D11917"/>
<path d="M122.849 445.864L120.901 448.187L120.212 446.902L121.43 445.451L122.849 445.864Z" fill="#D11917"/>
<path d="M127.65 443.584L124.801 444.621L124.847 443.164L126.628 442.516L127.65 443.584Z" fill="#D11917"/>
<path d="M136.924 446.969L134.601 445.02L135.886 444.332L137.337 445.549L136.924 446.969Z" fill="#D11917"/>
<path d="M131.096 463.676L133.944 462.639L133.899 464.096L132.118 464.744L131.096 463.676Z" fill="#D11917"/>
<path fill-rule="evenodd" clip-rule="evenodd" d="M119.371 451.876C118.389 457.443 122.107 462.751 127.674 463.732C133.241 464.714 138.549 460.996 139.53 455.429C140.511 449.862 136.794 444.554 131.227 443.573C125.66 442.592 120.352 446.309 119.371 451.876ZM123.241 452.522C122.633 455.975 124.938 459.267 128.391 459.876C131.844 460.484 135.137 458.179 135.746 454.726C136.354 451.273 134.048 447.98 130.595 447.372C127.142 446.763 123.85 449.069 123.241 452.522Z" fill="#D11917"/>
</svg>
